# xmcd CD database file
#
# Track frame offsets:
#	150
#	16899
#	27921
#	73622
#	91252
#	125435
#	158870
#	202557
#	215072
#	230565
#	262942
#	280694
#	292148
#	305820
#
# Disc length: 4240 seconds
#
# Revision: 0
# Processed by: cddbd v1.5.1PL2 Copyright (c) Steve Scherf et al.
# Submitted via: CDex 1.51
#
DISCID=c5108e0e
DTITLE=Taste - Live at the Marquee - In the beginning
DYEAR=1968
DGENRE=Blues
TTITLE0=Movin' On
TTITLE1=Bye Bye Bird
TTITLE2=Baby please don't go
TTITLE3=Blister on the moon
TTITLE4=Sugar Mama
TTITLE5=First time I met the blues
TTITLE6=Catfish
TTITLE7=Wee Wee Baby
TTITLE8=How many more years
TTITLE9=Take it easy baby
TTITLE10=You've got to pay
TTITLE11=Worries Man
TTITLE12=Norman Invasion
TTITLE13=Pardon Me Mister
EXTD=YEAR: 1968
EXTT0=
EXTT1=
EXTT2=
EXTT3=
EXTT4=
EXTT5=
EXTT6=
EXTT7=
EXTT8=
EXTT9=
EXTT10=
EXTT11=
EXTT12=
EXTT13=
PLAYORDER=
